Coordinates
version=1
nRows=13
nColumns=34
inDegrees=yes

Units are S.I. units (second, meters, Newtons, ...)
If the header above contains a line with 'inDegrees', this indicates whether rotational values are in degrees (yes) or radians (no).

endheader
time	pelvis_tilt	pelvis_list	pelvis_rotation	pelvis_tx	pelvis_ty	pelvis_tz	hip_flexion_l	hip_adduction_l	hip_rotation_l	hip_flexion_r	hip_adduction_r	hip_rotation_r	knee_angle_l_beta	knee_angle_r_beta	knee_angle_l	knee_angle_r	ankle_angle_l	ankle_angle_r	subtalar_angle_l	subtalar_angle_r	mtp_angle_l	mtp_angle_r	lumbar_ext	lumbar_bend	lumbar_rota	shoulder_flexion_r	shoulder_adduction_r	shoulder_rotation_r	elbow_flexion_r	shoulder_flexion_l	shoulder_adduction_l	shoulder_rotation_l	elbow_flexion_l
      0.59000000	     18.07639360	     -1.61249998	      2.34752165	      0.48001685	      0.95401391	     -0.18315327	    -30.95659418	      1.15499493	      5.94143304	      0.97787812	      2.73593847	     -0.84909181	      0.18394723	     -0.05983116	    -10.53939985	      3.42807323	     19.33922865	      1.90256537	      8.53143309	     -0.19678938	     -0.99244507	     -3.71522495	    -31.41500025	      2.03973296	      3.36091253	     -8.65533577	      5.45134110	    -36.68710710	     41.82200379	      9.63547913	      0.49591823	     -3.18941619	     46.12884014
      0.60000000	     18.10900075	     -1.85988455	      2.47675663	      0.49169350	      0.95272534	     -0.18258154	    -31.45105758	      0.77846677	      5.43329321	      1.03868984	      3.20318895	     -0.95930077	      0.19489820	     -0.05241555	    -11.16684455	      3.00319000	     19.61445436	      1.95989919	      9.33474279	      0.79724974	     -1.04247726	     -1.94656078	    -31.35717898	      2.30090034	      3.30582725	     -8.59060762	      5.32726508	    -36.42087301	     41.14091995	      9.46597672	      0.67816467	     -3.51649195	     46.10551423
      0.61000000	     18.20301240	     -2.00932648	      2.61285376	      0.50324816	      0.95180558	     -0.18203146	    -31.97477457	      0.52366477	      5.43577470	      1.03109326	      3.57634515	     -0.69671230	      0.20659762	     -0.03994742	    -11.83717176	      2.28881858	     19.35141110	      1.78398040	      9.31143866	      0.93765932	     -1.02558174	     -1.78023981	    -31.40265140	      2.49415712	      3.32724569	     -8.55679194	      5.28249972	    -36.42278872	     40.66071828	      9.39196705	      0.86195977	     -3.60488641	     45.91381748
      0.62000000	     18.12154286	     -2.36624725	      2.66942944	      0.51547880	      0.95086010	     -0.18132544	    -32.29444648	      0.08513089	      4.99266388	      1.27247097	      4.16972157	     -1.01731147	      0.22008404	     -0.02131781	    -12.60988676	      1.22142047	     19.20340839	      1.69435711	      9.74594430	      1.80987223	     -0.99643789	     -0.24278306	    -31.15768124	      2.82898732	      3.22829481	     -8.41883101	      5.09781551	    -35.95220772	     39.79997124	      8.98909218	      1.09621536	     -4.27973655	     45.84651296
      0.63000000	     18.23104202	     -2.63110935	      2.78423643	      0.52766029	      0.95050518	     -0.18067191	    -32.76078256	     -0.28337884	      4.93607318	      1.25582301	      4.67630707	     -1.02032367	      0.23497025	     -0.00054006	    -13.46280374	      0.03094304	     18.55162796	      1.28467265	      9.69632058	      1.84073511	     -0.94686339	     -0.00275870	    -31.13808358	      3.11533960	      3.33155815	     -8.39513250	      5.04152306	    -35.97237232	     39.22829006	      8.78830910	      1.34092532	     -4.54461436	     45.51702077
      0.64000000	     18.25318059	     -2.97531626	      2.87577113	      0.54016189	      0.95029535	     -0.17994640	    -33.06188916	     -0.72368544	      4.80780488	      1.32561177	      5.25175934	     -1.05353740	      0.25243297	      0.02278061	    -14.46334369	     -1.30523278	     17.72371915	      0.76071132	      9.72667596	      1.92680215	     -0.79014177	      0.31648427	    -30.97620429	      3.47603950	      3.42686557	     -8.36345207	      4.96442932	    -35.91735960	     38.59897146	      8.47879273	      1.61253059	     -4.96992798	     45.11982830
      0.65000000	     17.97000607	     -3.32978884	      2.90266428	      0.55302305	      0.94995442	     -0.17910792	    -32.91577504	     -1.17110678	      4.55296224	      1.71790772	      5.80160726	     -0.89011879	      0.27332718	      0.04757794	    -15.66049400	     -2.72601531	     16.78473334	      0.11946215	     10.16844538	      1.89455930	      0.66938099	      1.59296705	    -30.46100088	      3.82249089	      3.01501267	     -8.07421577	      4.77773807	    -35.29048449	     37.64055733	      7.70628635	      1.84819515	     -6.17370904	     45.12249895
      0.66000000	     18.16333113	     -3.65374862	      3.08355976	      0.56587372	      0.95058200	     -0.17853457	    -33.20369233	     -1.64701018	      4.69424342	      1.47548312	      6.32384578	     -0.62571310	      0.29627571	      0.07076165	    -16.97534776	     -4.05434389	     15.36362747	     -0.45454645	     10.40107699	      1.94340999	      0.83102725	      1.71367341	    -30.45361455	      4.22690505	      3.06646178	     -8.08104582	      4.75571543	    -35.37689082	     37.23748545	      7.33323935	      2.08666044	     -6.44000380	     44.66762962
      0.67000000	     17.78221252	     -4.07940494	      3.05840697	      0.57904670	      0.95065549	     -0.17741105	    -32.65570130	     -2.20497623	      4.09208176	      1.91285500	      6.98549102	     -0.05834876	      0.32507639	      0.09623606	    -18.62550529	     -5.51392018	     13.77992836	     -1.46826510	     11.11509009	      0.80478328	      4.08323036	      1.86119826	    -29.77446399	      4.58526620	      2.87679273	     -7.86735089	      4.63330293	    -35.00172418	     36.35515262	      6.60371395	      2.39752830	     -7.73684382	     44.40128745
      0.68000000	     17.78469502	     -4.54587445	      3.21515424	      0.59231296	      0.95153324	     -0.17661910	    -32.41881055	     -2.90701460	      3.76567602	      1.79154630	      7.68131865	      0.44610613	      0.35482683	      0.11815363	    -20.33007967	     -6.76970417	     11.70393479	     -2.17097931	     11.72303581	      0.28412948	      8.00211759	      1.13411351	    -29.48418893	      5.09332580	      2.86274733	     -7.82274539	      4.59427496	    -35.02339876	     35.84585403	      6.04866616	      2.71279014	     -8.57850855	     43.90010513
      0.69000000	     18.02641350	     -4.90549506	      3.49829604	      0.60541400	      0.95295669	     -0.17611237	    -32.27712576	     -3.52426541	      3.86515093	      1.35504648	      8.24336002	      0.93808197	      0.38957380	      0.13833588	    -22.32093468	     -7.92606217	      9.47723433	     -2.50020008	     12.33366218	      0.24019705	      8.29186682	      1.19262990	    -29.48497786	      5.56229343	      2.90824250	     -7.86424467	      4.60768135	    -35.15071536	     35.58644608	      5.62085507	      2.98822300	     -8.95254907	     43.33776342
      0.70000000	     18.21587924	     -5.27688506	      3.80632196	      0.61846366	      0.95451141	     -0.17560694	    -31.84663180	     -4.20894767	      3.80354945	      0.92561096	      8.82422685	      1.42983956	      0.42958354	      0.15653612	    -24.61332352	     -8.96885902	      6.91437383	     -2.76300229	     13.18588889	      0.01128095	      8.78495477	      1.20662192	    -29.41977414	      6.04884075	      2.94992951	     -7.89565561	      4.62524561	    -35.32643825	     35.36929632	      5.20275317	      3.27730640	     -9.49245013	     42.70452254
      0.71000000	     17.58166689	     -6.00066118	      3.78633350	      0.63188974	      0.95491399	     -0.17392950	    -30.34172657	     -5.38788285	      2.43661463	      1.38194372	      9.92130179	      2.86589840	      0.47078873	      0.17491657	    -26.97420745	    -10.02198127	      4.35222533	     -3.69944600	     15.57083191	     -2.58866542	     17.92174248	     -1.51512821	    -28.39593261	      6.66826109	      2.77253812	     -7.68832839	      4.60447513	    -35.27067327	     34.84357921	      4.33036065	      3.60844766	    -11.25014827	     42.36755437
